<svg width="250" xmlns="http://www.w3.org/2000/svg" xmlns:xlink="http://www.w3.org/1999/xlink" viewBox="0 0 363.04 136.53"><defs><linearGradient id="linear-gradient" x1="328.74" y1="62.52" x2="257.98" y2="62.52" gradientUnits="userSpaceOnUse"><stop offset="0" stop-color="#fff"/><stop offset="1"/></linearGradient><filter id="AI_GaussianBlur_4" name="AI_GaussianBlur_4"><feGaussianBlur stdDeviation="4"/></filter><filter id="luminosity-invert" filterUnits="userSpaceOnUse" color-interpolation-filters="sRGB"><feColorMatrix values="-1 0 0 0 1 0 -1 0 0 1 0 0 -1 0 1 0 0 0 1 0"/></filter><mask id="mask" x="101.02" y="2.52" width="404" height="120" maskUnits="userSpaceOnUse"><g style="filter:url(#luminosity-invert)"><g transform="translate(-26.38)"><rect x="127.4" y="2.52" width="404" height="120" style="fill:url(#linear-gradient)"/></g></g></mask></defs><title>HTTPs-fail</title><g style="isolation:isolate"><g id="Layer_2" data-name="Layer 2"><g id="Layer_1-2" data-name="Layer 1"><rect x="14.02" y="4.52" width="332" height="120" rx="4.21" ry="4.21" style="fill:#e6e8f2;mix-blend-mode:multiply"/><g style="mix-blend-mode:multiply;filter:url(#AI_GaussianBlur_4)"><path d="M374.12,136.52c-130.86-11.95-204.41-9.66-335.43,0a4.18,4.18,0,0,1-4.28-4.28V20.8a4.28,4.28,0,0,1,4.28-4.28H374.12a4.28,4.28,0,0,1,4.28,4.28V132.23A4.16,4.16,0,0,1,374.12,136.52Z" transform="translate(-26.38)" style="fill:#e6e8f2"/></g><rect x="1.02" y="0.52" width="361" height="120" rx="4.39" ry="4.39" style="fill:#fff"/><rect x="0.52" y="0.52" width="362" height="120" rx="4.39" ry="4.39" style="fill:none;stroke:#bfc5de;stroke-miterlimit:10;stroke-width:1.0364284713674756px;opacity:0.5"/><g style="mask:url(#mask)"><path d="M162.52,49.45a11.13,11.13,0,0,1,4.31.84,9.47,9.47,0,0,1,3.44,2.42,11.83,11.83,0,0,1,2.26,3.81,14.23,14.23,0,0,1,.84,5V78.28h-7.13V62.47A6.21,6.21,0,0,0,164.6,58a6.14,6.14,0,0,0-8.49,0,6.21,6.21,0,0,0-1.64,4.5V78.28h-7.13V39.22h7.13V52.55A9,9,0,0,1,156.39,51a14.22,14.22,0,0,1,2.51-1.05A11.73,11.73,0,0,1,162.52,49.45Z" transform="translate(-26.38)" style="fill:#a5aecc"/><path d="M183,42.94h6.2v6.82h6.2v6.51h-6.2V68.05a3.74,3.74,0,0,0,4,4c.33,0,.6,0,.81,0a3.68,3.68,0,0,0,.56-.09,2.33,2.33,0,0,0,.5-.19V78a5.71,5.71,0,0,1-1,.31,8.62,8.62,0,0,1-2.42.31,10.27,10.27,0,0,1-3.87-.71,8.37,8.37,0,0,1-3-2.08,9.82,9.82,0,0,1-2-3.22,11.7,11.7,0,0,1-.71-4.22V56.27h-4.34V50.38h1.86Q183,50.38,183,47Z" transform="translate(-26.38)" style="fill:#a5aecc"/><path d="M204.37,42.94h6.2v6.82h6.2v6.51h-6.2V68.05a3.74,3.74,0,0,0,4,4c.33,0,.6,0,.81,0A3.68,3.68,0,0,0,216,72a2.33,2.33,0,0,0,.5-.19V78a5.71,5.71,0,0,1-1,.31,8.62,8.62,0,0,1-2.42.31,10.27,10.27,0,0,1-3.87-.71,8.37,8.37,0,0,1-3-2.08,9.82,9.82,0,0,1-2-3.22,11.7,11.7,0,0,1-.71-4.22V56.27H199.1V50.38H201q3.41,0,3.41-3.41Z" transform="translate(-26.38)" style="fill:#a5aecc"/><path d="M237.23,49.45a12.3,12.3,0,0,1,5.08,1.08,13.14,13.14,0,0,1,4.25,3,14.92,14.92,0,0,1,2.91,4.62,16.19,16.19,0,0,1,0,11.66,14.89,14.89,0,0,1-2.91,4.62,13.11,13.11,0,0,1-4.25,3,12.29,12.29,0,0,1-5.08,1.08,10.15,10.15,0,0,1-3.13-.43,16.83,16.83,0,0,1-2.32-.93,10.11,10.11,0,0,1-2-1.43V88.2h-7.13V49.76h5.27l1.24,2.79A10.79,10.79,0,0,1,231.34,51a17,17,0,0,1,2.54-1.05A10.55,10.55,0,0,1,237.23,49.45ZM229.17,64a7.75,7.75,0,0,0,2,5.64,7.18,7.18,0,0,0,10.17,0,7.75,7.75,0,0,0,2-5.64,7.75,7.75,0,0,0-2-5.64,7.18,7.18,0,0,0-10.17,0A7.75,7.75,0,0,0,229.17,64Z" transform="translate(-26.38)" style="fill:#a5aecc"/><path d="M266.69,51.79A4.13,4.13,0,1,1,265.48,49,3.87,3.87,0,0,1,266.69,51.79Zm0,20.77a4.13,4.13,0,1,1-1.21-2.82A3.86,3.86,0,0,1,266.69,72.56Z" transform="translate(-26.38)" style="fill:#a5aecc"/><path d="M275.68,87.44h-6.82L285,37.22h6.82Z" transform="translate(-26.38)" style="fill:#a5aecc"/><path d="M294,87.44h-6.82l16.12-50.22h6.82Z" transform="translate(-26.38)" style="fill:#a5aecc"/><path d="M331.17,59.23l-5.27,17h-6.2l-9.3-28.52h7.13l5.58,18.29L329,47.76h4.34l5.89,18.29,5.58-18.29h7.13l-9.3,28.52h-6.2Z" transform="translate(-26.38)" style="fill:#a5aecc"/></g><circle cx="61.02" cy="60.52" r="39" style="fill:#f66"/><rect x="53.9" y="37.52" width="13.24" height="27.76" rx="1.59" ry="1.59" style="fill:#fff"/><circle cx="60.52" cy="77.43" r="7.5" style="fill:#fff"/></g></g></g></svg>