<svg width="250" xmlns="http://www.w3.org/2000/svg" xmlns:xlink="http://www.w3.org/1999/xlink" viewBox="0 0 363.04 136.53"><defs><linearGradient id="linear-gradient" x1="336.74" y1="62.52" x2="265.98" y2="62.52" gradientUnits="userSpaceOnUse"><stop offset="0" stop-color="#fff"/><stop offset="1"/></linearGradient><filter id="AI_GaussianBlur_4" name="AI_GaussianBlur_4"><feGaussianBlur stdDeviation="4"/></filter><filter id="luminosity-invert" filterUnits="userSpaceOnUse" color-interpolation-filters="sRGB"><feColorMatrix values="-1 0 0 0 1 0 -1 0 0 1 0 0 -1 0 1 0 0 0 1 0"/></filter><mask id="mask" x="109.02" y="2.52" width="404" height="120" maskUnits="userSpaceOnUse"><g style="filter:url(#luminosity-invert)"><g transform="translate(-26.38)"><rect x="135.4" y="2.52" width="404" height="120" style="fill:url(#linear-gradient)"/></g></g></mask></defs><title>HTTPS-success</title><g style="isolation:isolate"><g id="Layer_2" data-name="Layer 2"><g id="Layer_1-2" data-name="Layer 1"><rect x="14.02" y="4.52" width="332" height="120" rx="4.21" ry="4.21" style="fill:#e6e8f2;mix-blend-mode:multiply"/><g style="mix-blend-mode:multiply;filter:url(#AI_GaussianBlur_4)"><path d="M374.12,136.52c-130.86-11.95-204.41-9.66-335.43,0a4.18,4.18,0,0,1-4.28-4.28V20.8a4.28,4.28,0,0,1,4.28-4.28H374.12a4.28,4.28,0,0,1,4.28,4.28V132.23A4.16,4.16,0,0,1,374.12,136.52Z" transform="translate(-26.38)" style="fill:#e6e8f2"/></g><rect x="1.02" y="0.52" width="361" height="120" rx="4.39" ry="4.39" style="fill:#fff"/><rect x="0.52" y="0.52" width="362" height="120" rx="4.39" ry="4.39" style="fill:none;stroke:#bfc5de;stroke-miterlimit:10;stroke-width:1.0364284713674756px;opacity:0.5"/><rect x="31.65" y="48.79" width="55.37" height="47.73" rx="2.36" ry="2.36" style="fill:#67c1e6"/><path d="M106.67,52.35H98.18V41.16A12.23,12.23,0,0,0,92.41,30a12.66,12.66,0,0,0-6.91-1.91h-.14A12.76,12.76,0,0,0,78.46,30a12.23,12.23,0,0,0-5.77,11.11V52.35H64.2V41.54A20.71,20.71,0,0,1,74,22.84a22.16,22.16,0,0,1,23,0,20.71,20.71,0,0,1,9.76,18.69Z" transform="translate(-26.38)" style="fill:#67c1e6"/><g style="mask:url(#mask)"><path d="M158.52,49.45a11.13,11.13,0,0,1,4.31.84,9.46,9.46,0,0,1,3.44,2.42,11.82,11.82,0,0,1,2.26,3.81,14.23,14.23,0,0,1,.84,5V78.28h-7.13V62.47A6.21,6.21,0,0,0,160.6,58a6.14,6.14,0,0,0-8.49,0,6.21,6.21,0,0,0-1.64,4.5V78.28h-7.13V39.22h7.13V52.55A9,9,0,0,1,152.39,51a14.14,14.14,0,0,1,2.51-1.05A11.75,11.75,0,0,1,158.52,49.45Z" transform="translate(-26.38)" style="fill:#a5aecc"/><path d="M179,42.94h6.2v6.82h6.2v6.51h-6.2V68.05a3.74,3.74,0,0,0,4,4c.33,0,.6,0,.81,0a3.81,3.81,0,0,0,.56-.09,2.36,2.36,0,0,0,.5-.19V78a5.58,5.58,0,0,1-1,.31,8.6,8.6,0,0,1-2.42.31,10.27,10.27,0,0,1-3.87-.71,8.37,8.37,0,0,1-3-2.08,9.81,9.81,0,0,1-2-3.22,11.7,11.7,0,0,1-.71-4.22V56.27h-4.34V50.38h1.86Q179,50.38,179,47Z" transform="translate(-26.38)" style="fill:#a5aecc"/><path d="M200.37,42.94h6.2v6.82h6.2v6.51h-6.2V68.05a3.74,3.74,0,0,0,4,4c.33,0,.6,0,.81,0A3.81,3.81,0,0,0,212,72a2.36,2.36,0,0,0,.5-.19V78a5.58,5.58,0,0,1-1,.31,8.6,8.6,0,0,1-2.42.31,10.27,10.27,0,0,1-3.87-.71,8.37,8.37,0,0,1-3-2.08,9.81,9.81,0,0,1-2-3.22,11.7,11.7,0,0,1-.71-4.22V56.27H195.1V50.38H197q3.41,0,3.41-3.41Z" transform="translate(-26.38)" style="fill:#a5aecc"/><path d="M233.23,49.45a12.3,12.3,0,0,1,5.08,1.08,13.14,13.14,0,0,1,4.25,3,14.92,14.92,0,0,1,2.91,4.62,16.19,16.19,0,0,1,0,11.66,14.91,14.91,0,0,1-2.91,4.62,13.12,13.12,0,0,1-4.25,3,12.28,12.28,0,0,1-5.08,1.08,10.16,10.16,0,0,1-3.13-.43,16.71,16.71,0,0,1-2.32-.93,10.07,10.07,0,0,1-2-1.43V88.2h-7.13V49.76h5.27l1.24,2.79A10.78,10.78,0,0,1,227.34,51a16.89,16.89,0,0,1,2.54-1.05A10.56,10.56,0,0,1,233.23,49.45ZM225.17,64a7.75,7.75,0,0,0,2,5.64,7.18,7.18,0,0,0,10.17,0,7.75,7.75,0,0,0,2-5.64,7.75,7.75,0,0,0-2-5.64,7.18,7.18,0,0,0-10.17,0A7.75,7.75,0,0,0,225.17,64Z" transform="translate(-26.38)" style="fill:#a5aecc"/><path d="M257.1,69.29a4.09,4.09,0,0,0,1.36,2.42,5,5,0,0,0,5.92,0,2.82,2.82,0,0,0,1.08-2.14,1.71,1.71,0,0,0-1.08-1.55,15.13,15.13,0,0,0-2.7-1q-1.61-.47-3.5-1a13.45,13.45,0,0,1-3.5-1.46,8.82,8.82,0,0,1-2.7-2.48,6.73,6.73,0,0,1-1.08-4,8,8,0,0,1,2.79-6.08,10.82,10.82,0,0,1,3.22-1.89,11.72,11.72,0,0,1,4.22-.71q5.15,0,7.91,2.48a9.83,9.83,0,0,1,3.25,6.2h-6.82a3.89,3.89,0,0,0-1.33-1.86,4,4,0,0,0-2.7-.93,3.63,3.63,0,0,0-2.51.81,2.56,2.56,0,0,0-.9,2,1.71,1.71,0,0,0,1.08,1.55,15.08,15.08,0,0,0,2.7,1l3.5,1a13.68,13.68,0,0,1,3.5,1.52,8.91,8.91,0,0,1,2.7,2.57,7.15,7.15,0,0,1,1.08,4.12,7.69,7.69,0,0,1-.74,3.32A8.26,8.26,0,0,1,269.75,76a10.54,10.54,0,0,1-3.32,1.89,12.69,12.69,0,0,1-4.37.71q-5.58,0-8.46-2.54a10,10,0,0,1-3.32-6.76Z" transform="translate(-26.38)" style="fill:#64bbde"/><path d="M284.69,53.79A4.13,4.13,0,1,1,283.48,51,3.87,3.87,0,0,1,284.69,53.79Zm0,20.77a4.13,4.13,0,1,1-1.21-2.82A3.87,3.87,0,0,1,284.69,74.56Z" transform="translate(-26.38)" style="fill:#a5aecc"/><path d="M293.68,89.44h-6.82L303,39.22h6.82Z" transform="translate(-26.38)" style="fill:#a5aecc"/><path d="M312,89.44h-6.82l16.12-50.22h6.82Z" transform="translate(-26.38)" style="fill:#a5aecc"/></g><path d="M93.06,66.5a7.35,7.35,0,1,0-11.58,6L79.16,82.7a.69.69,0,0,0,.67.82H91.59a.69.69,0,0,0,.67-.82L89.94,72.5A7.33,7.33,0,0,0,93.06,66.5Z" transform="translate(-26.38)" style="fill:#fff"/></g></g></g></svg>